<?xml version="1.0" encoding="UTF-8"?>
<svg width="24px" height="24px" viewBox="0 0 24 24" version="1.1" xmlns="http://www.w3.org/2000/svg" xmlns:xlink="http://www.w3.org/1999/xlink">
    <title>droplet-percent</title>
    <g id="droplet-percent" stroke="none" fill="none" fill-rule="nonzero">
        <path d="M15,16.991 C15,17.5432847 14.5522847,17.991 14,17.991 C13.4477153,17.991 13,17.5432847 13,16.991 C13,16.4387153 13.4477153,15.991 14,15.991 C14.5522847,15.991 15,16.4387153 15,16.991 Z M10,13.991 C10.5522847,13.991 11,13.5432847 11,12.991 C11,12.4387153 10.5522847,11.991 10,11.991 C9.44771525,11.991 9,12.4387153 9,12.991 C9,13.5432847 9.44771525,13.991 10,13.991 Z M14.146,12.138 L9.146,17.138 C8.95076735,17.3335088 8.95099121,17.6502673 9.14650001,17.8455 C9.34200881,18.0407326 9.65876734,18.0405088 9.854,17.845 L14.854,12.845 C14.9802934,12.718528 15.0295213,12.5342863 14.98314,12.361677 C14.9367587,12.1890677 14.8018147,12.0543143 14.62914,12.008177 C14.4564653,11.9620397 14.2722934,12.011528 14.146,12.138 L14.146,12.138 Z M18.574,12.269 C19.7986502,14.3719538 19.8061464,16.9690333 18.5936565,19.0790217 C17.3811666,21.1890101 15.1335534,22.490207 12.7,22.491 L11.3,22.491 C8.86644661,22.490207 6.61883343,21.1890101 5.40634353,19.0790217 C4.19385363,16.9690333 4.20134985,14.3719538 5.426,12.269 L11.568,1.739 C11.6645391,1.59491224 11.826561,1.50844084 12,1.50844084 C12.173439,1.50844084 12.3354609,1.59491224 12.432,1.739 L18.574,12.269 Z M18.5,15.694 C18.4996896,14.6677255 18.2274515,13.659858 17.711,12.773 L12,2.984 L6.289,12.773 C5.24476472,14.566777 5.23866081,16.7818259 6.27299422,18.5813307 C7.30732764,20.3808356 9.22441262,21.490459 11.3,21.491 L12.7,21.491 C15.9020803,21.491 18.4983438,18.8960799 18.5,15.694 L18.5,15.694 Z" id="Forma" fill="#ECC988"></path>
    </g>
</svg>