<?xml version="1.0" encoding="UTF-8"?>
<svg width="24px" height="24px" viewBox="0 0 24 24" version="1.1" xmlns="http://www.w3.org/2000/svg" xmlns:xlink="http://www.w3.org/1999/xlink">
    <title>pressure</title>
    <g id="pressure" stroke="none" fill="none" fill-rule="evenodd" stroke-width="1">
        <g id="Capa_1" transform="translate(0.9024, 0.9024)" fill="#ECC988">
            <path d="M22.1952,11.0976 C22.1952,17.2272 17.2272,22.1952 11.0976,22.1952 C4.968,22.1952 0,17.2272 0,11.0976 C0,4.968 4.968,0 11.0976,0 C17.2272,0 22.1952,4.968 22.1952,11.0976 Z M21.1008,11.0952 C21.1008,5.568 16.62,1.0896 11.0952,1.0896 C5.5704,1.0896 1.0896,5.568 1.0896,11.0952 C1.0896,16.6224 5.5704,21.1008 11.0952,21.1008 C16.62,21.1008 21.1008,16.62 21.1008,11.0952 L21.1008,11.0952 Z" id="Forma" fill-rule="nonzero"></path>
            <path d="M15.4152,6.78 L14.9328,9.1776 C14.772,9.2976 14.5488,8.6496 14.2152,8.8008 C14.1144,8.8464 12.7032,10.2816 12.66,10.3824 C12.4416,10.8936 12.6456,11.4072 12.312,11.9544 C11.8296,12.7488 10.9512,12.3696 10.2408,12.7632 C9.2136,13.3344 9.1104,15.1128 8.8104,15.1752 C8.2248,15.3024 8.2704,14.2824 7.98,14.0856 C7.6368,13.8528 6.4152,14.1984 7.1184,13.2408 C7.3032,12.9888 8.808,13.0656 9.4272,11.9496 C9.8208,11.2416 9.4416,10.56 10.1112,9.9936 C10.7064,9.4896 11.2176,9.7848 11.808,9.5304 C11.9112,9.4872 13.3464,8.076 13.3896,7.9752 C13.5168,7.6824 13.0176,7.4616 13.0152,7.3752 C13.008,7.02 14.9592,6.78 15.4104,6.7776 L15.4152,6.78 Z M11.5632,11.0952 C11.5632,10.8384 11.3544,10.6296 11.0976,10.6296 C10.8408,10.6296 10.632,10.8384 10.632,11.0952 C10.632,11.352 10.8408,11.5608 11.0976,11.5608 C11.3544,11.5608 11.5632,11.352 11.5632,11.0952 Z" id="Forma" fill-rule="nonzero"></path>
            <path d="M8.1,3.4176 C8.7504,3.2712 8.9208,4.4808 8.3328,4.6152 C7.7088,4.7568 7.2432,3.6096 8.1,3.4176 Z" id="Trazado"></path>
            <path d="M6.0576,5.0976 C6.7032,5.5656 5.5392,6.6912 5.1,6.0552 C4.7712,5.5776 5.604,4.7688 6.0576,5.0976 Z" id="Trazado"></path>
            <path d="M17.0976,6.0576 C16.6392,6.7008 15.4992,5.5488 16.14,5.1 C16.6104,4.7688 17.4264,5.5992 17.0976,6.0576 Z" id="Trazado"></path>
            <circle id="Óvalo" cx="4.0176" cy="8.1624" r="1"></circle>
            <circle id="Óvalo" cx="18.1776" cy="8.1624" r="1"></circle>
            <path d="M6.0576,17.0976 C5.5968,17.4264 4.7688,16.6104 5.1,16.14 C5.5488,15.5016 6.7008,16.6392 6.0576,17.0976 Z" id="Trazado"></path>
            <path d="M17.0976,16.1376 C17.4264,16.6152 16.5936,17.424 16.14,17.0952 C15.4944,16.6272 16.6584,15.5016 17.0976,16.1376 Z" id="Trazado"></path>
            <path d="M13.86,17.58 C14.484,17.4384 14.9496,18.5856 14.0928,18.7776 C13.4424,18.924 13.272,17.7144 13.86,17.58 Z" id="Trazado"></path>
            <circle id="Óvalo" cx="13.9752" cy="4.0104" r="1"></circle>
            <circle id="Óvalo" cx="4.0176" cy="13.9776" r="1"></circle>
            <circle id="Óvalo" cx="18.1776" cy="13.9776" r="1"></circle>
            <circle id="Óvalo" cx="8.2152" cy="18.1704" r="1"></circle>
            <path d="M11.5752,2.94 C11.964,3.3288 11.0016,4.2864 10.6176,3.8976 C10.1184,3.3912 11.076,2.4432 11.5752,2.94 L11.5752,2.94 Z" id="Trazado"></path>
            <path d="M3.8952,10.62 C4.284,11.004 3.3264,11.9664 2.9376,11.5776 C2.4408,11.0784 3.3888,10.1208 3.8952,10.62 Z" id="Trazado"></path>
            <path d="M19.2552,10.62 C19.644,11.004 18.6864,11.9664 18.2976,11.5776 C17.8008,11.0784 18.7488,10.1208 19.2552,10.62 Z" id="Trazado"></path>
        </g>
    </g>
</svg>