<?xml version="1.0" encoding="UTF-8"?>
<svg width="24px" height="24px" viewBox="0 0 24 24" version="1.1" xmlns="http://www.w3.org/2000/svg" xmlns:xlink="http://www.w3.org/1999/xlink">
    <title>sunrise-arrow-up</title>
    <g id="sunrise-arrow-up" stroke="none" fill="none" fill-rule="nonzero">
        <path d="M12,8.5 C15.0359672,8.5038566 17.4961434,10.9640328 17.5,14 C17.5,14.2761424 17.2761424,14.5 17,14.5 C16.7238576,14.5 16.5,14.2761424 16.5,14 C16.5,11.5147186 14.4852814,9.5 12,9.5 C9.51471863,9.5 7.5,11.5147186 7.5,14 C7.5,14.2761424 7.27614237,14.5 7,14.5 C6.72385763,14.5 6.5,14.2761424 6.5,14 C6.5038566,10.9640328 8.96403277,8.5038566 12,8.5 Z M22,17.5 L2,17.5 C1.72385763,17.5 1.5,17.7238576 1.5,18 C1.5,18.2761424 1.72385763,18.5 2,18.5 L22,18.5 C22.2761424,18.5 22.5,18.2761424 22.5,18 C22.5,17.7238576 22.2761424,17.5 22,17.5 Z M18,21.5 L6,21.5 C5.72385763,21.5 5.5,21.7238576 5.5,22 C5.5,22.2761424 5.72385763,22.5 6,22.5 L18,22.5 C18.2761424,22.5 18.5,22.2761424 18.5,22 C18.5,21.7238576 18.2761424,21.5 18,21.5 Z M12,6.5 C12.2761424,6.5 12.5,6.27614237 12.5,6 L12.5,3.207 L13.646,4.354 C13.772472,4.48047202 13.956809,4.52986496 14.129573,4.48357299 C14.302337,4.43728102 14.437281,4.30233698 14.483573,4.12957299 C14.529865,3.956809 14.480472,3.77247202 14.354,3.646 L12.354,1.646 C12.2601957,1.5519583 12.1328273,1.49910622 12,1.49910622 C11.8671727,1.49910622 11.7398043,1.5519583 11.646,1.646 L9.646,3.646 C9.51952798,3.77247202 9.47013504,3.956809 9.51642701,4.12957299 C9.56271898,4.30233698 9.69766302,4.43728102 9.87042701,4.48357299 C10.043191,4.52986496 10.227528,4.48047202 10.354,4.354 L11.5,3.207 L11.5,6 C11.5,6.27614237 11.7238576,6.5 12,6.5 Z M18.011,8.7 L19.425,7.286 C19.5549783,7.16046276 19.6071063,6.97456105 19.5613486,6.79974634 C19.5155909,6.62493162 19.3790684,6.48840914 19.2042537,6.44265142 C19.0294389,6.3968937 18.8435372,6.44902171 18.718,6.579 L17.3,7.989 C17.1700217,8.11453724 17.1178937,8.30043895 17.1636514,8.47525366 C17.2094091,8.65006838 17.3459316,8.78659086 17.5207463,8.83234858 C17.6955611,8.8781063 17.8814628,8.82597829 18.007,8.696 L18.011,8.7 Z M22,13.5 L20,13.5 C19.7238576,13.5 19.5,13.7238576 19.5,14 C19.5,14.2761424 19.7238576,14.5 20,14.5 L22,14.5 C22.2761424,14.5 22.5,14.2761424 22.5,14 C22.5,13.7238576 22.2761424,13.5 22,13.5 Z M4,13.5 L2,13.5 C1.72385763,13.5 1.5,13.7238576 1.5,14 C1.5,14.2761424 1.72385763,14.5 2,14.5 L4,14.5 C4.27614237,14.5 4.5,14.2761424 4.5,14 C4.5,13.7238576 4.27614237,13.5 4,13.5 Z M5.282,6.575 C5.15646276,6.44502171 4.97056105,6.3928937 4.79574634,6.43865142 C4.62093162,6.48440914 4.48440914,6.62093162 4.43865142,6.79574634 C4.3928937,6.97056105 4.44502171,7.15646276 4.575,7.282 L5.989,8.7 C6.18533723,8.89633723 6.50366277,8.89633723 6.7,8.7 C6.89633723,8.50366277 6.89633723,8.18533723 6.7,7.989 L5.282,6.575 Z" id="Forma" fill="#ECC988"></path>
    </g>
</svg>