<?xml version="1.0" encoding="UTF-8"?>
<svg width="24px" height="24px" viewBox="0 0 24 24" version="1.1" xmlns="http://www.w3.org/2000/svg" xmlns:xlink="http://www.w3.org/1999/xlink">
    <title>thermometer-list</title>
    <g id="thermometer-list" stroke="none" fill="none" fill-rule="nonzero">
        <path d="M10.0000143,17 C10.0038949,18.0402929 9.20963755,18.9098643 8.17324705,18.9999715 C7.13685655,19.0900787 6.20444454,18.3706296 6.02874521,17.3452739 C5.85304587,16.3199182 6.49273551,15.3310823 7.5,15.071 L7.5,5 C7.5,4.72385763 7.72385763,4.5 8,4.5 C8.27614237,4.5 8.5,4.72385763 8.5,5 L8.5,15.071 C9.38034257,15.2982967 9.99659259,16.0907942 10.0000143,17 Z M15,4.5 L21,4.5 C21.2761424,4.5 21.5,4.27614237 21.5,4 C21.5,3.72385763 21.2761424,3.5 21,3.5 L15,3.5 C14.7238576,3.5 14.5,3.72385763 14.5,4 C14.5,4.27614237 14.7238576,4.5 15,4.5 Z M15,8.5 L19,8.5 C19.2761424,8.5 19.5,8.27614237 19.5,8 C19.5,7.72385763 19.2761424,7.5 19,7.5 L15,7.5 C14.7238576,7.5 14.5,7.72385763 14.5,8 C14.5,8.27614237 14.7238576,8.5 15,8.5 Z M15,12.5 L17,12.5 C17.2761424,12.5 17.5,12.2761424 17.5,12 C17.5,11.7238576 17.2761424,11.5 17,11.5 L15,11.5 C14.7238576,11.5 14.5,11.7238576 14.5,12 C14.5,12.2761424 14.7238576,12.5 15,12.5 Z M11.4999986,5.00000005 L11.4999986,12.78 C12.7667805,13.8147781 13.5011536,15.3643053 13.4999986,17.0000001 C13.4999986,20.0375661 11.0375661,22.5000001 7.99999864,22.5000001 C4.96243388,22.5000001 2.49999864,20.0375661 2.49999864,17.0000001 C2.49884639,15.3643053 3.23321946,13.8147781 4.49999864,12.78 L4.49999864,5.00000005 C4.49999864,3.0670034 6.0670034,1.50000005 7.99999864,1.50000005 C9.9329966,1.50000005 11.4999986,3.0670034 11.4999986,5.00000005 L11.4999986,5.00000005 Z M10.7,13.421 C10.5740971,13.3265728 10.5,13.1783787 10.5,13.021 L10.5,5 C10.5,3.61928813 9.38071187,2.5 8,2.5 C6.61928813,2.5 5.5,3.61928813 5.5,5 L5.5,13.022 C5.5,13.1793787 5.42590292,13.3275728 5.3,13.422 C4.16796923,14.2629327 3.50045588,15.589801 3.5,17 C3.5,19.4852814 5.51471863,21.5 8,21.5 C10.4852814,21.5 12.5,19.4852814 12.5,17 C12.4998604,15.5894488 11.8323133,14.2621427 10.7,13.421 Z" id="Forma" fill="#ECC988"></path>
    </g>
</svg>