<?xml version="1.0" encoding="UTF-8"?>
<svg width="24px" height="24px" viewBox="0 0 24 24" version="1.1" xmlns="http://www.w3.org/2000/svg" xmlns:xlink="http://www.w3.org/1999/xlink">
    <title>sun</title>
    <g id="sun" stroke="none" fill="none" fill-rule="nonzero">
        <path d="M6.5,12 C6.5,15.0375661 8.96243388,17.5 12,17.5 C15.0375661,17.5 17.5,15.0375661 17.5,12 C17.5,8.96243388 15.0375661,6.5 12,6.5 C8.96380465,6.5033068 6.5033068,8.96380465 6.5,12 Z M12,7.5 C14.4852814,7.5 16.5,9.51471863 16.5,12 C16.5,14.4852814 14.4852814,16.5 12,16.5 C9.51471863,16.5 7.5,14.4852814 7.5,12 C7.50275556,9.51586091 9.51586091,7.50275556 12,7.5 Z M12,4.5 C11.7238576,4.5 11.5,4.27614237 11.5,4 L11.5,2 C11.5,1.72385763 11.7238576,1.5 12,1.5 C12.2761424,1.5 12.5,1.72385763 12.5,2 L12.5,4 C12.5,4.27614237 12.2761424,4.5 12,4.5 Z M12,19.5 C12.2761424,19.5 12.5,19.7238576 12.5,20 L12.5,22 C12.5,22.2761424 12.2761424,22.5 12,22.5 C11.7238576,22.5 11.5,22.2761424 11.5,22 L11.5,20 C11.5,19.7238576 11.7238576,19.5 12,19.5 Z M19.425,5.283 L18.011,6.7 C17.8149389,6.89633723 17.4968372,6.89656109 17.3005,6.7005 C17.1041628,6.50443891 17.1039389,6.18633723 17.3,5.99 L18.714,4.576 C18.9101894,4.3865139 19.2220424,4.38922381 19.4149093,4.58209071 C19.6077762,4.77495761 19.6104861,5.08681056 19.421,5.283 L19.425,5.283 Z M6.7,17.3 C6.89519097,17.4952499 6.89519097,17.8117501 6.7,18.007 L5.282,19.425 C5.15646276,19.5549783 4.97056105,19.6071063 4.79574634,19.5613486 C4.62093162,19.5155909 4.48440914,19.3790684 4.43865142,19.2042537 C4.3928937,19.0294389 4.44502171,18.8435372 4.575,18.718 L5.99,17.3 C6.0838833,17.2053437 6.21168123,17.1521008 6.345,17.1521008 C6.47831877,17.1521008 6.6061167,17.2053437 6.7,17.3 Z M22.5,12 C22.5,12.2761424 22.2761424,12.5 22,12.5 L20,12.5 C19.7238576,12.5 19.5,12.2761424 19.5,12 C19.5,11.7238576 19.7238576,11.5 20,11.5 L22,11.5 C22.2761424,11.5 22.5,11.7238576 22.5,12 Z M4.5,12 C4.5,12.2761424 4.27614237,12.5 4,12.5 L2,12.5 C1.72385763,12.5 1.5,12.2761424 1.5,12 C1.5,11.7238576 1.72385763,11.5 2,11.5 L4,11.5 C4.27614237,11.5 4.5,11.7238576 4.5,12 Z M18.011,17.3 L19.425,18.715 C19.6144861,18.9111894 19.6117762,19.2230424 19.4189093,19.4159093 C19.2260424,19.6087762 18.9141894,19.6114861 18.718,19.422 L17.3,18.01 C17.1105139,17.8138106 17.1132238,17.5019576 17.3060907,17.3090907 C17.4989576,17.1162238 17.8108106,17.1135139 18.007,17.303 L18.011,17.3 Z M6.7,5.99 C6.89606109,6.18606109 6.89606109,6.50393891 6.7,6.7 C6.50393891,6.89606109 6.18606109,6.89606109 5.99,6.7 L4.575,5.283 C4.44502171,5.15746276 4.3928937,4.97156105 4.43865142,4.79674634 C4.48440914,4.62193162 4.62093162,4.48540914 4.79574634,4.43965142 C4.97056105,4.3938937 5.15646276,4.44602171 5.282,4.576 L6.7,5.99 Z" id="Forma" fill="#ECC988"></path>
    </g>
</svg>