<?xml version="1.0" encoding="UTF-8"?>
<svg width="24px" height="24px" viewBox="0 0 24 24" version="1.1" xmlns="http://www.w3.org/2000/svg" xmlns:xlink="http://www.w3.org/1999/xlink">
    <title>visibility</title>
    <g id="visibility" stroke="none" fill="none" fill-rule="evenodd" stroke-width="1">
        <g id="Capa_1" transform="translate(1.1736, 3.8944)" fill="#ECC988">
            <path d="M10.3031597,0.0103590486 C13.9895597,-0.155240951 17.5439597,1.67835905 19.8047597,4.52475905 C20.7791597,5.75115905 22.1255597,7.52235905 21.4751597,9.03435905 C18.0047597,17.117559 7.41355971,18.699159 1.84315971,11.683959 C0.791959715,10.359159 -0.530440285,8.64555905 0.220759715,6.98235905 C1.88875971,3.29115905 6.21355971,0.192759049 10.2983597,0.0103590486 L10.3031597,0.0103590486 Z M9.93274494,1.12466388 C7.48507501,1.35916356 4.73214012,2.75203516 3.05873313,4.58000254 C2.55920866,5.12811023 0.777571363,7.64262488 0.827523811,8.23028673 C0.874701122,8.77839442 2.709066,11.301385 3.18361425,11.7929867 C7.24641332,16.0055051 13.7346812,16.223053 18.0222663,12.185703 C18.6549973,11.5895653 20.8889818,8.72471377 20.8251536,7.98731116 C20.7779763,7.43920347 18.9436114,4.91903823 18.4690632,4.42461119 C16.362735,2.24065633 12.9382172,0.836483548 9.93274494,1.12466388 Z" id="Forma" fill-rule="nonzero"></path>
            <path d="M14.8967597,8.10555905 C14.8967597,10.354359 13.0751597,12.175959 10.8263597,12.175959 C8.57755971,12.175959 6.75595971,10.354359 6.75595971,8.10555905 C6.75595971,5.85675905 8.57755971,4.03515905 10.8263597,4.03515905 C13.0751597,4.03515905 14.8967597,5.85675905 14.8967597,8.10555905 L14.8967597,8.10555905 Z M13.8263597,8.10555905 C13.8263597,6.44708239 12.4848364,5.10555905 10.8263597,5.10555905 C9.16788306,5.10555905 7.82635971,6.44708239 7.82635971,8.10555905 C7.82635971,9.76403571 9.16788306,11.105559 10.8263597,11.105559 C12.4848364,11.105559 13.8263597,9.76403571 13.8263597,8.10555905 Z" id="Forma" fill-rule="nonzero"></path>
        </g>
    </g>
</svg>