<?xml version="1.0" encoding="UTF-8"?>
<svg width="24px" height="24px" viewBox="0 0 24 24" version="1.1" xmlns="http://www.w3.org/2000/svg" xmlns:xlink="http://www.w3.org/1999/xlink">
    <title>wind</title>
    <g id="wind" stroke="none" fill="none" fill-rule="nonzero">
        <path d="M1.5,8 C1.5,7.72385763 1.72385763,7.5 2,7.5 L9,7.5 C10.3807119,7.5 11.5,6.38071187 11.5,5 C11.5,3.61928813 10.3807119,2.5 9,2.5 L8,2.5 C7.72385763,2.5 7.5,2.27614237 7.5,2 C7.5,1.72385763 7.72385763,1.5 8,1.5 L9,1.5 C10.9329966,1.5 12.5,3.0670034 12.5,5 C12.5,6.9329966 10.9329966,8.5 9,8.5 L2,8.5 C1.72385763,8.5 1.5,8.27614237 1.5,8 Z M2,16.5 L19,16.5 C20.3807118,16.5 21.5,17.6192882 21.5,19 C21.5,20.3807118 20.3807118,21.5 19,21.5 L18,21.5 C17.7238576,21.5 17.5,21.7238576 17.5,22 C17.5,22.2761424 17.7238576,22.5 18,22.5 L19,22.5 C20.9329966,22.5 22.5,20.9329966 22.5,19 C22.5,17.0670034 20.9329966,15.5 19,15.5 L2,15.5 C1.72385763,15.5 1.5,15.7238576 1.5,16 C1.5,16.2761424 1.72385763,16.5 2,16.5 Z M2,12.5 L19,12.5 C20.9329966,12.5 22.5,10.9329966 22.5,9 C22.5,7.0670034 20.9329966,5.5 19,5.5 L18,5.5 C17.7238576,5.5 17.5,5.72385763 17.5,6 C17.5,6.27614237 17.7238576,6.5 18,6.5 L19,6.5 C20.3807119,6.5 21.5,7.61928815 21.5,9 C21.5,10.3807119 20.3807119,11.5 19,11.5 L2,11.5 C1.72385763,11.5 1.5,11.7238576 1.5,12 C1.5,12.2761424 1.72385763,12.5 2,12.5 L2,12.5 Z" id="Forma" fill="#ECC988"></path>
    </g>
</svg>