<?xml version="1.0" encoding="UTF-8"?>
<svg width="20px" height="20px" viewBox="0 0 20 20" version="1.1" xmlns="http://www.w3.org/2000/svg" xmlns:xlink="http://www.w3.org/1999/xlink">
    <title>cart_icon</title>
    <g id="cart_icon" stroke="none" fill="none" fill-rule="evenodd" stroke-width="1">
        <g id="Capa_1" transform="translate(1.1328, 0.3835)" fill="#000000">
            <path d="M0,19.616504 L1.6796875,4.81181646 L4.84375,4.81181646 C4.80585938,3.86455084 4.86171875,2.98056646 5.30585938,2.12939459 C6.42109375,-0.00732416075 9.20234375,-0.645605411 11.1839844,0.717675839 C12.5386719,1.64931646 13.021875,3.21259771 12.890625,4.81181646 L16.0546875,4.81181646 L17.734375,19.616504 L0,19.616504 Z M12.03125,4.81181646 L12.03125,3.58134771 C12.03125,3.30830084 11.7535156,2.65126959 11.6082031,2.40283209 C10.3941406,0.323144589 7.34023438,0.323144589 6.12617188,2.40283209 C5.98085938,2.65126959 5.703125,3.30830084 5.703125,3.58134771 L5.703125,4.81181646 L12.03125,4.81181646 Z M4.84375,5.63212896 L2.421875,5.63212896 L0.9375,18.7961915 L16.796875,18.7961915 L15.3125,5.63212896 L12.890625,5.63212896 L12.890625,6.53056646 C12.890625,6.53994146 12.9875,6.55751959 13.0484375,6.62626959 C13.6554688,7.30986334 13.025,8.27197271 12.1652344,7.97822271 C11.7410156,7.83330084 11.5480469,7.33173834 11.7,6.92197271 C11.7703125,6.73251959 12.0308594,6.53759771 12.0308594,6.51064459 L12.0308594,5.63173834 L5.70273438,5.63173834 L5.70273438,6.51064459 C5.70273438,6.53720709 5.96328125,6.73212896 6.03359375,6.92197271 C6.18554687,7.33134771 5.99257812,7.83330084 5.56835938,7.97822271 C4.70859375,8.27197271 4.078125,7.30947271 4.68515625,6.62626959 C4.74609375,6.55751959 4.84296875,6.53994146 4.84296875,6.53056646 L4.84296875,5.63212896 L4.84375,5.63212896 Z" id="Forma" fill-rule="nonzero"></path>
        </g>
    </g>
</svg>