<?xml version="1.0" encoding="UTF-8"?>
<svg width="25px" height="26px" viewBox="0 0 25 26" version="1.1" xmlns="http://www.w3.org/2000/svg" xmlns:xlink="http://www.w3.org/1999/xlink">
    <title>shop_icon</title>
    <g id="Página-1" stroke="none" stroke-width="1" fill="none" fill-rule="evenodd">
        <g id="Frame" transform="translate(-176, -49)" stroke="#ECC988">
            <g id="Grupo-Copia" transform="translate(159, 33)">
                <g id="shop_icon" transform="translate(17, 16)">
                    <path d="M24.137931,10.5921927 L24.137931,17.1143394 C24.137931,21.4694695 20.5444971,25 16.1117717,25 L8.8882283,25 C4.4555029,25 0.862068966,21.4694695 0.862068966,17.1143394 L0.862068966,10.5921927" id="Trazado"></path>
                    <path d="M24.4582411,6.33730053 L24.5,6.70784899 L24.5,8.97090517 C24.5,11.0753005 22.7940505,12.78125 20.6896552,12.78125 C19.0312974,12.78125 17.5784298,11.712098 17.0688898,10.1615676 L16.5930848,8.7136931 L16.1187178,10.1620394 C15.6110781,11.7119744 14.1585238,12.78125 12.5,12.78125 C10.8416422,12.78125 9.38877461,11.712098 8.87923459,10.1615676 L8.40342962,8.7136931 L7.92906262,10.1620394 C7.42142296,11.7119744 5.96886861,12.78125 4.31034483,12.78125 C2.20594949,12.78125 0.5,11.0753005 0.5,8.97090517 L0.500000013,6.70784899 L0.541758913,6.33730053 C0.914736989,3.02767284 3.72504345,0.5 7.08333333,0.5 L17.9166667,0.5 C21.2749565,0.5 24.085263,3.02767284 24.4582411,6.33730053 Z" id="Forma-combinada"></path>
                    <path d="M16.8103448,18.75 L16.8103448,21.09375 C16.8103448,23.2511123 14.8805377,25 12.5,25 C10.1194623,25 8.18965517,23.2511123 8.18965517,21.09375 L8.18965517,18.75 L8.18965517,18.75" id="Trazado" transform="translate(12.5, 21.875) rotate(-180) translate(-12.5, -21.875)"></path>
                </g>
            </g>
        </g>
    </g>
</svg>