<?xml version="1.0" encoding="UTF-8"?>
<svg width="12px" height="12px" viewBox="0 0 12 12" version="1.1" xmlns="http://www.w3.org/2000/svg" xmlns:xlink="http://www.w3.org/1999/xlink">
    <title>sun-light</title>
    <g id="sun-light" stroke="none" fill="none" fill-rule="nonzero">
        <path d="M0.7665,8.0895 C0.797260721,8.16954567 0.86690108,8.22823985 0.951,8.245 L3.2875,8.7125 L3.755,11.05 C3.77185697,11.1342131 3.8307609,11.2038783 3.911,11.2345 C3.9913587,11.2643087 4.08135208,11.2513181 4.15,11.2 L6,9.8125 L7.85,11.2 C7.89337427,11.2322638 7.94594231,11.2497865 8,11.25 C8.11881715,11.2500243 8.22123657,11.1664166 8.245,11.05 L8.7125,8.7135 L11.05,8.245 C11.1339751,8.22787051 11.2033227,8.16891875 11.2337487,8.08879699 C11.2641747,8.00867523 11.2514378,7.91855211 11.2,7.85 L9.8125,6 L11.2,4.15 C11.2514378,4.08144789 11.2641747,3.99132477 11.2337487,3.91120301 C11.2033227,3.83108125 11.1339751,3.77212949 11.05,3.755 L8.7135,3.2875 L8.245,0.95 C8.22787051,0.866024898 8.16891875,0.796677252 8.08879699,0.766251267 C8.00867523,0.735825282 7.91855211,0.748562214 7.85,0.8 L6,2.1875 L4.15,0.8 C4.08144789,0.748562214 3.99132477,0.735825282 3.91120301,0.766251267 C3.83108125,0.796677252 3.77212949,0.866024898 3.755,0.95 L3.2875,3.2875 L0.95,3.755 C0.866024898,3.77212949 0.796677252,3.83108125 0.766251267,3.91120301 C0.735825282,3.99132477 0.748562214,4.08144789 0.8,4.15 L2.1875,6 L0.8,7.85 C0.748395146,7.91876247 0.735742821,8.00921716 0.7665,8.0895 Z M2.7,6.15 C2.76666667,6.06111111 2.76666667,5.93888889 2.7,5.85 L1.438,4.1675 L3.55,3.745 C3.64821444,3.72496976 3.72496976,3.64821444 3.745,3.55 L4.167,1.439 L5.85,2.7 C5.93888889,2.76666667 6.06111111,2.76666667 6.15,2.7 L7.833,1.4375 L8.255,3.55 C8.27481801,3.64888708 8.35211292,3.72618199 8.451,3.746 L10.562,4.1685 L9.3,5.85 C9.23333333,5.93888889 9.23333333,6.06111111 9.3,6.15 L10.562,7.8325 L8.45,8.255 C8.35096963,8.27489036 8.27363799,8.35241927 8.254,8.4515 L7.832,10.562 L6.15,9.3 C6.06111111,9.23333333 5.93888889,9.23333333 5.85,9.3 L4.167,10.562 L3.745,8.45 C3.72496976,8.35178556 3.64821444,8.27503024 3.55,8.255 L1.439,7.8325 L2.7,6.15 Z M6,8.25 C7.24264069,8.25 8.25,7.24264069 8.25,6 C8.25,4.75735931 7.24264069,3.75 6,3.75 C4.75735931,3.75 3.75,4.75735931 3.75,6 C3.75,7.24264069 4.75735931,8.25 6,8.25 Z M6,4.25 C6.96649831,4.25 7.75,5.03350169 7.75,6 C7.75,6.96649831 6.96649831,7.75 6,7.75 C5.03350169,7.75 4.25,6.96649831 4.25,6 C4.25,5.03350169 5.03350169,4.25 6,4.25 Z" id="Forma" fill="#ECC988"></path>
    </g>
</svg>