<?xml version="1.0" encoding="UTF-8"?>
<svg width="63px" height="15px" viewBox="0 0 63 15" version="1.1" xmlns="http://www.w3.org/2000/svg" xmlns:xlink="http://www.w3.org/1999/xlink">
    <title>Ruben_Terre_Logo_blanco_131119</title>
    <g id="Página-1" stroke="none" stroke-width="1" fill="none" fill-rule="evenodd">
        <g id="Inicio_Completo_iPhone-13" transform="translate(-25, -1492)" fill="#FFFFFF">
            <g id="Ruben_Terre_Logo_blanco_131119" transform="translate(25.988, 1492.19)">
                <path d="M11.2644987,1.71888935 L6.14373669,1.71888935 L6.13868912,3.64004994 L6.13868912,12.0846662 L5.96538914,12.0846662 C5.60532898,12.0846662 5.32602998,12.0505381 5.14599991,11.6867828 L4.01618499,9.31529817 C3.89668576,9.05274296 3.69610192,8.83445629 3.44328554,8.69183661 L3.44328554,8.65770854 C3.93458257,8.55365955 5.37818823,7.63636364 5.37818823,5.4205363 C5.37818823,3.10149236 3.88831316,1.71639218 1.76076145,1.71639218 L0.00252378612,1.71639218 L0.00252378612,3.63339081 L1.49408139,3.63339081 C2.54229389,3.63339081 3.17660547,4.3259409 3.17660547,5.53790356 C3.17660547,6.76651406 2.53808758,7.47654438 1.45706586,7.47654438 L0,7.4857007 L0,9.41518521 L0.835373207,9.41518521 C1.44108188,9.41518521 1.68673039,9.4984244 1.92901386,9.98620608 L3.41888894,13.0843689 C3.79577433,13.8634877 4.17602477,14 5.04084215,14 L8.27633596,14 L8.27633596,3.63755277 L10.061494,3.63755277 C10.2911586,3.63755277 10.4215542,3.77656222 10.4215542,4.01878828 L10.4215542,4.76294667 L12.3051399,4.76294667 L12.3051399,2.82430584 C12.3051399,2.01105892 12.0435074,1.71639218 11.2569274,1.71639218" id="Trazado"></path>
                <path d="M15.3454609,4.35257744 L16.3356263,4.35257744 C17.1034181,4.35257744 17.4875945,4.01962067 17.4881559,3.35370712 C17.4887162,2.68779357 17.1045398,2.35483679 16.3356263,2.35483679 L15.3454609,2.35483679 L15.3454609,4.35257744 Z M17.448616,6.95796421 L16.0824064,4.83786194 L15.3454609,4.83786194 L15.3454609,6.95796421 L14.6724513,6.95796421 L14.6724513,1.76883287 L16.3978797,1.76883287 C16.9934932,1.76883287 17.439923,1.90978457 17.7371689,2.19168797 C18.0344148,2.47359137 18.1833182,2.84789028 18.183879,3.3145847 C18.183879,3.73688487 18.0647002,4.07677825 17.8263427,4.33426482 C17.5879851,4.59175139 17.2436285,4.75240304 16.7932729,4.81621975 L18.2234183,6.95796421 L17.448616,6.95796421 Z" id="Forma" fill-rule="nonzero"></path>
                <path d="M19.9244502,1.76883287 L19.9244502,4.88197871 C19.9244502,5.39306736 20.0385814,5.76986345 20.2668438,6.01236697 C20.4951063,6.25487048 20.8100187,6.37750956 21.2115811,6.3802842 C21.6086568,6.3802842 21.9188021,6.25736766 22.1420169,6.01153457 C22.3652318,5.76570149 22.4774001,5.39029272 22.4785217,4.88530828 L22.4785217,1.76883287 L23.1557377,1.76883287 L23.1557377,4.88197871 C23.1557377,5.58840201 22.9785118,6.11974553 22.6240601,6.47600928 C22.2696083,6.83227302 21.7948561,7.01012744 21.1998034,7.0095738 C20.6092375,7.0095738 20.1367286,6.8317181 19.7822769,6.47600928 C19.4278252,6.12030045 19.249758,5.58895693 19.2480755,4.88197871 L19.2480755,1.76883287 L19.9244502,1.76883287 Z" id="Trazado"></path>
                <path d="M25.9966796,6.39859683 C26.3544964,6.39859683 26.6309912,6.31757734 26.826164,6.15553838 C27.0264667,5.9851486 27.1352855,5.73227439 27.1206057,5.47131221 C27.1330899,5.2102822 27.0217005,4.95845026 26.8194339,4.7904156 C26.6186527,4.62393721 26.3396341,4.54069802 25.9823782,4.54069802 L24.851722,4.54069802 L24.851722,6.39859683 L25.9966796,6.39859683 Z M24.851722,4.04292764 L25.9823782,4.04292764 C26.3143962,4.04292764 26.5684574,3.96690251 26.7445616,3.81485225 C26.9253621,3.65160493 27.0223632,3.41654969 27.0087178,3.17474285 C27.0198759,2.93904899 26.9246376,2.71063038 26.7487679,2.55128129 C26.574907,2.39923103 26.3093487,2.3232059 25.9520927,2.3232059 L24.851722,2.3232059 L24.851722,4.04292764 Z M26.7336252,4.27100303 C27.0400633,4.33085016 27.3168373,4.49199356 27.5185226,4.72798621 C27.7181592,4.95981757 27.8252701,5.25585543 27.8196944,5.56037814 C27.8355001,5.94620808 27.6759319,6.31878196 27.384762,6.57589631 C27.094807,6.83116317 26.674176,6.9587966 26.1228689,6.9587966 L24.174506,6.9587966 L24.174506,1.76883287 L26.0934247,1.76883287 C26.6194939,1.76883287 27.018813,1.88398042 27.2913819,2.11427552 C27.5639508,2.34457062 27.7002352,2.66115702 27.7002352,3.06403472 C27.7140162,3.35782875 27.6175363,3.64629179 27.4293489,3.87395208 C27.2490051,4.07975663 27.0039725,4.21959724 26.7336252,4.27100303 Z" id="Forma" fill-rule="nonzero"></path>
                <path d="M31.4775018,0.583506748 L29.8934054,1.4450324 L29.8934054,0.969736607 L31.4775018,0.0391224211 L31.4775018,0.583506748 Z M29.484552,2.31321719 L29.484552,4.08787681 L31.4775018,4.08787681 L31.4775018,4.60229502 L29.484552,4.60229502 L29.484552,6.41357988 L31.7012775,6.41357988 L31.7012775,6.95796421 L28.8073361,6.95796421 L28.8073361,1.76883287 L31.7012775,1.76883287 L31.7012775,2.31321719 L29.484552,2.31321719 Z" id="Forma" fill-rule="nonzero"></path>
                <polygon id="Trazado" points="36.6765012 6.95796421 35.9992853 6.95796421 33.2769613 2.85843391 33.2769613 6.95796421 32.5997454 6.95796421 32.5997454 1.76883287 33.2769613 1.76883287 35.9992853 5.87668708 35.9992853 1.76883287 36.6765012 1.76883287"></polygon>
                <polygon id="Trazado" points="43.5437233 1.72971045 43.5437233 2.27409477 42.0631021 2.27409477 42.0631021 6.91884179 41.3867274 6.91884179 41.3867274 2.27409477 39.9061062 2.27409477 39.9061062 1.72971045"></polygon>
                <polygon id="Trazado" points="45.4853561 2.27409477 45.4853561 4.04875438 47.4791471 4.04875438 47.4791471 4.56400499 45.4853561 4.56400499 45.4853561 6.37445746 47.7020815 6.37445746 47.7020815 6.91884179 44.8081401 6.91884179 44.8081401 1.72971045 47.7020815 1.72971045 47.7020815 2.27409477"></polygon>
                <path d="M49.844776,4.31345502 L50.8341001,4.31345502 C51.6030136,4.31345502 51.98719,3.98049825 51.9866297,3.3145847 C51.9860683,2.64867115 51.6018919,2.31571437 50.8341001,2.31571437 L49.844776,2.31571437 L49.844776,4.31345502 Z M51.9479311,6.91884179 L50.5808802,4.79873952 L49.844776,4.79873952 L49.844776,6.91884179 L49.1717663,6.91884179 L49.1717663,1.72971045 L50.898036,1.72971045 C51.4925279,1.72971045 51.9386772,1.87066215 52.2364839,2.15256555 C52.5342907,2.43446895 52.6831941,2.80876786 52.6831941,3.27546227 C52.6831941,3.69776245 52.5640153,4.03737836 52.3256577,4.29431001 C52.0873001,4.55124165 51.7404198,4.71217076 51.2850166,4.77709733 L52.715162,6.91884179 L51.9479311,6.91884179 Z" id="Forma" fill-rule="nonzero"></path>
                <path d="M54.7770953,4.31345502 L55.7664195,4.31345502 C56.535333,4.31345502 56.9195093,3.98049825 56.9189491,3.3145847 C56.9183876,2.64867115 56.5342113,2.31571437 55.7664195,2.31571437 L54.7770953,2.31571437 L54.7770953,4.31345502 Z M56.8802504,6.91884179 L55.5131996,4.79873952 L54.7770953,4.79873952 L54.7770953,6.91884179 L54.1040857,6.91884179 L54.1040857,1.72971045 L55.8278316,1.72971045 C56.4234451,1.72971045 56.8698748,1.87066215 57.1671208,2.15256555 C57.4643667,2.43446895 57.6124288,2.80876786 57.6113071,3.27546227 C57.6113071,3.69776245 57.4921283,4.03737836 57.2537708,4.29431001 C57.0154132,4.55124165 56.6707762,4.71217076 56.2198597,4.77709733 L57.6500052,6.91884179 L56.8802504,6.91884179 Z" id="Forma" fill-rule="nonzero"></path>
                <path d="M61.7032057,0.544384327 L60.118268,1.40590998 L60.118268,0.927284619 L61.7032057,0 L61.7032057,0.544384327 Z M59.7094147,2.27409477 L59.7094147,4.04958678 L61.7032057,4.04958678 L61.7032057,4.56483739 L59.7094147,4.56483739 L59.7094147,6.37445746 L61.9261401,6.37445746 L61.9261401,6.91884179 L59.0321987,6.91884179 L59.0321987,1.72971045 L61.9261401,1.72971045 L61.9261401,2.27409477 L59.7094147,2.27409477 Z" id="Forma" fill-rule="nonzero"></path>
                <path d="M15.670188,13.592128 C16.0857715,13.592128 16.4034881,13.4861367 16.6233379,13.2741542 C16.8431878,13.0621718 16.9533931,12.7641754 16.9539539,12.3801653 C16.9539539,11.9956002 16.8445899,11.696494 16.6258617,11.4828468 C16.4071336,11.2691995 16.0885757,11.1626533 15.670188,11.1632061 L15.1006536,11.1632061 L15.1006536,13.592128 L15.670188,13.592128 Z M17.3737437,12.3801653 C17.3803612,12.6693457 17.3135442,12.9555472 17.1794121,13.2125572 C17.0502479,13.4491591 16.8508869,13.6408983 16.6081952,13.7619359 C16.3256259,13.8981898 16.0138262,13.9644628 15.6996322,13.9550508 L14.6901178,13.9550508 L14.6901178,10.8052797 L15.6996322,10.8052797 C16.0129403,10.7966029 16.3238256,10.8619481 16.6065127,10.9958975 C16.849647,11.1143551 17.0493416,11.3049601 17.1777296,11.5411142 C17.313102,11.8001242 17.3805051,12.0886474 17.3737437,12.3801653 L17.3737437,12.3801653 Z" id="Forma" fill-rule="nonzero"></path>
                <rect id="Rectángulo" x="17.7497878" y="10.8061121" width="1" height="3.15310066"></rect>
                <path d="M20.6555069,13.1401391 C20.6563912,13.2858318 20.6189947,13.4292511 20.5469841,13.5563351 C20.4696187,13.6903858 20.3552198,13.7998247 20.2172094,13.8718116 C20.0480931,13.9569001 19.86002,13.9984125 19.6703891,13.9925085 C19.4765909,13.9959512 19.2844151,13.9570118 19.1075847,13.8784708 C18.9518026,13.8086176 18.8163769,13.7009612 18.7138741,13.5654914 C18.6164649,13.4322681 18.5582302,13.2749637 18.5456217,13.1110054 L18.9805542,13.1110054 C18.9910833,13.2041793 19.0227143,13.293804 19.073093,13.3732089 C19.1290913,13.4611801 19.2070224,13.5334165 19.2993925,13.5829716 C19.4083543,13.6409139 19.5307519,13.6696123 19.6544051,13.6662108 C19.8068032,13.6760781 19.9567387,13.6244243 20.0699885,13.5230394 C20.1670255,13.4254692 20.2193342,13.2927663 20.2146856,13.1559546 C20.2198399,13.0429182 20.1837072,12.931822 20.1128929,12.8429752 C20.0441563,12.7618483 19.9579162,12.6969969 19.8605143,12.6531898 C19.728285,12.5944008 19.5922634,12.5443476 19.4533434,12.5033593 C19.2877346,12.4517085 19.125606,12.3897094 18.9679352,12.3177359 C18.8434104,12.2574824 18.7361124,12.1673409 18.655827,12.0555324 C18.5641536,11.919718 18.5190298,11.7583433 18.5271139,11.5952197 C18.5238425,11.4422883 18.565328,11.2916825 18.6465731,11.1615435 C18.729665,11.0331357 18.8494168,10.9320288 18.9906493,10.8710387 C19.1560776,10.7986972 19.3356277,10.7634501 19.5164381,10.7678221 C19.8299484,10.7678221 20.0786816,10.8430148 20.2626375,10.9934003 C20.4421496,11.1357575 20.5576345,11.3424556 20.5839996,11.5685832 L20.1406545,11.5685832 C20.114771,11.4394254 20.0464467,11.3223625 19.946323,11.2356264 C19.8267002,11.1354473 19.6729357,11.0842367 19.5164381,11.092455 C19.3728035,11.085511 19.2315652,11.130811 19.1193624,11.2198109 C19.0169795,11.3113991 18.961938,11.4438803 18.9696178,11.5802366 C18.9647292,11.6877124 18.9994018,11.7932952 19.0672042,11.8774006 C19.1332195,11.9540928 19.2157065,12.0152347 19.3086464,12.0563648 C19.4386293,12.1117487 19.5714496,12.1603712 19.7065633,12.2020334 C19.8757082,12.2536297 20.0412343,12.3161945 20.2020667,12.3893216 C20.3294465,12.4514903 20.4388446,12.5445579 20.5200637,12.659849 C20.6151882,12.8018445 20.6625877,12.969926 20.6555069,13.1401391 Z" id="Trazado"></path>
                <polygon id="Trazado" points="21.4378806 11.1365717 21.4378806 12.2145193 22.6492979 12.2145193 22.6492979 12.5274987 21.4378806 12.5274987 21.4378806 13.6279208 22.7847411 13.6279208 22.7847411 13.9583804 21.0265035 13.9583804 21.0265035 10.8061121 22.7847411 10.8061121 22.7847411 11.1365717"></polygon>
                <path d="M24.0996337,10.0719424 C24.1526712,10.0712171 24.2052237,10.0820146 24.2535847,10.1035733 C24.3059101,10.1286161 24.3557606,10.1584339 24.402488,10.1926393 C24.4438003,10.2206987 24.4867824,10.2462717 24.5312011,10.2692193 C24.5661272,10.2845219 24.6040655,10.2919158 24.6422477,10.2908615 C24.6921925,10.292602 24.7405259,10.2732303 24.7751671,10.2375884 C24.8138844,10.1940136 24.8369545,10.1389951 24.8407856,10.0810988 L25.0712914,10.0810988 C25.0598626,10.2082254 25.0087,10.3286736 24.9249118,10.425709 C24.8494312,10.5052586 24.7432356,10.5491664 24.6329938,10.5464059 C24.5752606,10.5479912 24.5178639,10.5372008 24.4647414,10.514775 C24.4103833,10.4895477 24.3583143,10.4597497 24.309108,10.425709 C24.2723767,10.3979965 24.2329188,10.3740136 24.1913313,10.3541233 C24.1572879,10.338765 24.1202192,10.3310882 24.0828085,10.3316487 C23.9709206,10.3316487 23.9069847,10.4015697 23.8884769,10.5414115 L23.6621774,10.5414115 C23.6742893,10.4118009 23.7255932,10.2888095 23.8093983,10.1884773 C23.8844761,10.1098106 23.9903836,10.0672868 24.0996337,10.0719424 Z M25.6096991,13.9550508 L25.1983219,13.9550508 L23.5435595,11.4645342 L23.5435595,13.9550508 L23.1321824,13.9550508 L23.1321824,10.8052797 L23.5435595,10.8052797 L25.1983219,13.3024556 L25.1983219,10.8052797 L25.6096991,10.8052797 L25.6096991,13.9550508 Z" id="Forma" fill-rule="nonzero"></path>
                <path d="M27.5488081,11.145728 C27.3424928,11.1425729 27.1391098,11.19432 26.9599246,11.2955586 C26.7849192,11.3964477 26.6432025,11.5453437 26.5519126,11.7242404 C26.3556612,12.1388016 26.3556612,12.6181994 26.5519126,13.0327606 C26.6419356,13.2128517 26.7831616,13.3630038 26.9582421,13.464772 C27.137649,13.5653791 27.3409314,13.6168132 27.5471255,13.6137701 C27.7523317,13.6169559 27.9545129,13.5645688 28.1318027,13.4622748 C28.3064056,13.3596611 28.4476894,13.2097578 28.5389735,13.0302634 C28.6404194,12.8285192 28.690935,12.6054521 28.6861944,12.3801653 C28.6913204,12.1529736 28.6408095,11.9279283 28.5389735,11.7242404 C28.4478307,11.5455124 28.3064367,11.3966485 28.1318027,11.2955586 C27.9545476,11.1948357 27.7531967,11.1430882 27.5488081,11.145728 L27.5488081,11.145728 Z M27.5488081,10.7653249 C27.8285551,10.7611651 28.104196,10.8322257 28.3463245,10.9709257 C28.5824816,11.107856 28.7755732,11.3069803 28.9040812,11.5461086 C29.173743,12.0689639 29.173743,12.6880372 28.9040812,13.2108924 C28.775304,13.4496112 28.5822574,13.6484011 28.3463245,13.7852429 C28.104196,13.9239429 27.8285551,13.9950035 27.5488081,13.9908437 C27.267515,13.9945843 26.9903592,13.9235826 26.7462441,13.7852429 C26.508119,13.6495494 26.3131563,13.4505869 26.1834398,13.2108924 C25.913778,12.6880372 25.913778,12.0689639 26.1834398,11.5461086 C26.3128826,11.3060014 26.507892,11.1067029 26.7462441,10.9709257 C26.9903592,10.832586 27.267515,10.7615843 27.5488081,10.7653249 L27.5488081,10.7653249 Z" id="Forma" fill-rule="nonzero"></path>
                <path d="M31.8653236,10.7744812 C32.1978439,10.7632481 32.5251178,10.8587306 32.7982832,11.0466734 C33.0499374,11.2289001 33.2298365,11.4919316 33.3072467,11.7908318 L32.8731555,11.7908318 C32.7991045,11.6020224 32.6669746,11.4410037 32.4954289,11.3305191 C32.309427,11.2110411 32.0912173,11.150099 31.8695299,11.1557167 C31.6650658,11.1524561 31.463551,11.2042458 31.2865353,11.3055473 C31.1132514,11.4071557 30.9728722,11.5555843 30.8818883,11.7333968 C30.7801734,11.9359092 30.7299274,12.1599175 30.7355087,12.385992 C30.729187,12.6166881 30.7803243,12.8453801 30.8844121,13.0519056 C30.9772463,13.2315716 31.1207214,13.3807622 31.2974717,13.4814198 C31.4832882,13.5836276 31.6931458,13.6353234 31.9057042,13.6312504 C32.0925447,13.6331213 32.2770396,13.5899836 32.4432706,13.5055592 C32.6071643,13.4214569 32.7454018,13.2955963 32.8437114,13.1409715 C32.9509557,12.97162 33.0153113,12.7791613 33.0313128,12.5799394 L31.7795149,12.5799394 L31.7795149,12.2761163 L33.3779128,12.2761163 L33.3779128,12.6515251 C33.3531961,12.8930988 33.2725963,13.1257979 33.1423594,13.3315893 C33.0124399,13.534367 32.8319445,13.7006327 32.6182531,13.8143766 C32.3875629,13.9361858 32.1292919,13.9977809 31.8678474,13.9933409 C31.5830824,13.9989612 31.3020534,13.9285102 31.054347,13.7894048 C30.8207295,13.6552966 30.6302675,13.4584735 30.5050029,13.2217135 C30.2435964,12.6969246 30.2435964,12.0817186 30.5050029,11.5569297 C30.6307407,11.3198583 30.8210342,11.1223442 31.054347,10.9867412 C31.3000094,10.8440363 31.58048,10.7706277 31.8653236,10.7744812 L31.8653236,10.7744812 Z" id="Trazado"></path>
                <path d="M34.1661753,12.3735062 L34.7668364,12.3735062 C35.2340172,12.3735062 35.4676077,12.1709574 35.4676077,11.76586 C35.4676077,11.3607626 35.2340172,11.1579365 34.7668364,11.1573815 L34.1661753,11.1573815 L34.1661753,12.3735062 Z M35.4448936,13.9550508 L34.6128854,12.6673405 L34.1661753,12.6673405 L34.1661753,13.9550508 L33.7539569,13.9550508 L33.7539569,10.8052797 L34.8030107,10.8052797 C35.1647533,10.8052797 35.4359201,10.8910161 35.616511,11.0624889 C35.8007841,11.2416068 35.8995512,11.489703 35.8882387,11.7450502 C35.8985981,11.9713517 35.8209247,12.1929785 35.6711931,12.3643498 C35.5030503,12.532086 35.2805456,12.6358288 35.0427703,12.6573518 L35.9101115,13.9550508 L35.4448936,13.9550508 Z" id="Forma" fill-rule="nonzero"></path>
                <path d="M38.1159006,10.0852607 L37.1518143,10.6088352 L37.1518143,10.3183305 L38.1142181,9.75480112 L38.1159006,10.0852607 Z M37.9577433,12.9153933 L37.3747487,11.3230275 L36.7917541,12.9153933 L37.9577433,12.9153933 Z M38.07552,13.2325346 L36.6739774,13.2325346 L36.4072974,13.9550508 L35.9647935,13.9550508 L37.1425604,10.8602176 L37.6086196,10.8602176 L38.7863864,13.9550508 L38.3438826,13.9550508 L38.07552,13.2325346 Z" id="Forma" fill-rule="nonzero"></path>
                <polygon id="Trazado" points="40.8239231 10.8061121 40.8239231 11.1365717 39.4316344 11.1365717 39.4316344 12.2278376 40.6110838 12.2278376 40.6110838 12.5458113 39.4316344 12.5458113 39.4316344 13.9583804 39.0202573 13.9583804 39.0202573 10.8061121"></polygon>
                <rect id="Rectángulo" x="41.1309837" y="10.8061121" width="1" height="3.15310066"></rect>
                <path d="M43.4318354,10.7744812 C43.7756028,10.7606396 44.1142336,10.8605134 44.3942392,11.0583269 C44.6509832,11.252327 44.8353352,11.5252074 44.9183454,11.8341162 L44.4850955,11.8341162 C44.4087246,11.6316289 44.2712775,11.4572727 44.0913849,11.334681 C43.8946488,11.2061508 43.662409,11.1412857 43.4267878,11.1490576 C43.022621,11.1410149 42.6516345,11.3694171 42.480368,11.731732 C42.3814288,11.935947 42.3327114,12.1604221 42.3381948,12.3868244 C42.3329778,12.6110631 42.3817084,12.8333169 42.480368,13.0352577 C42.566954,13.2107995 42.7016204,13.3587551 42.8690311,13.4622748 C43.0369596,13.5632401 43.2303121,13.6151805 43.4267878,13.6121054 C43.662409,13.6198772 43.8946488,13.5550122 44.0913849,13.426482 C44.2712775,13.3038903 44.4087246,13.1295341 44.4850955,12.9270468 L44.9183454,12.9270468 C44.8353352,13.2359556 44.6509832,13.508836 44.3942392,13.7028361 C44.1142336,13.9006496 43.7756028,14.0005233 43.4318354,13.9866817 C43.1541276,13.9921002 42.8802635,13.9218363 42.6402078,13.7835781 C42.4113497,13.648026 42.2258729,13.4512312 42.1051652,13.2158868 C41.9733689,12.9580966 41.9072345,12.6723449 41.9125162,12.3834949 C41.9081425,12.0947388 41.9742278,11.8091995 42.1051652,11.5511029 C42.2255606,11.3148914 42.4110547,11.1172126 42.6402078,10.9809144 C42.8799234,10.8414925 43.1538091,10.7700712 43.4318354,10.7744812 Z" id="Trazado"></path>
                <path d="M46.7489316,11.145728 C46.5426115,11.142532 46.3392177,11.1942818 46.1600482,11.2955586 C45.9856648,11.396699 45.8445555,11.5455709 45.7537186,11.7242404 C45.5574673,12.1388016 45.5574673,12.6181994 45.7537186,13.0327606 C45.8437417,13.2128517 45.9849677,13.3630038 46.1600482,13.464772 C46.3394397,13.5654168 46.5427327,13.6168535 46.7489316,13.6137701 C46.9555546,13.6176771 47.1592819,13.5652665 47.3378151,13.4622748 C47.512211,13.3594071 47.6534313,13.2095712 47.7449859,13.0302634 C47.8461727,12.8284579 47.8964007,12.6053866 47.8913655,12.3801653 C47.8967527,12.1530422 47.8465313,11.9280005 47.7449859,11.7242404 C47.6535675,11.5457034 47.5122393,11.3969087 47.3378151,11.2955586 C47.1588197,11.1938578 46.955306,11.1420775 46.7489316,11.145728 Z M46.7489316,10.7653249 C47.0289479,10.7611392 47.3048665,10.8321964 47.5472893,10.9709257 C47.7834465,11.107856 47.976538,11.3069803 48.1050461,11.5461086 C48.3747078,12.0689639 48.3747078,12.6880372 48.1050461,13.2108924 C47.9762688,13.4496112 47.7832222,13.6484011 47.5472893,13.7852429 C47.3048665,13.9239722 47.0289479,13.9950294 46.7489316,13.9908437 C46.4679031,13.9945982 46.1910147,13.9235905 45.9472089,13.7852429 C45.7090838,13.6495494 45.5141211,13.4505869 45.3844046,13.2108924 C45.1147429,12.6880372 45.1147429,12.0689639 45.3844046,11.5461086 C45.5138475,11.3060014 45.7088569,11.1067029 45.9472089,10.9709257 C46.1910147,10.8325781 46.4679031,10.7615704 46.7489316,10.7653249 L46.7489316,10.7653249 Z" id="Forma" fill-rule="nonzero"></path>
                <path d="M50.4058977,13.6412391 C50.5580395,13.6463784 50.7057107,13.5898569 50.8147511,13.4847494 C50.9224939,13.3783382 50.9806956,13.2324082 50.9754321,13.0818717 C50.9765545,12.9723242 50.9449465,12.8648896 50.8845758,12.7730543 C50.825911,12.68194 50.7452492,12.6067057 50.6498637,12.5541352 C50.5579042,12.500899 50.4535439,12.4722157 50.3470094,12.470896 C50.2032805,12.4662269 50.0638386,12.5197322 49.9608701,12.6190618 C49.8539968,12.7325409 49.7992061,12.8846385 49.809443,13.0394197 C49.8000976,13.2023918 49.8612781,13.3616 49.9776954,13.4772579 C50.0923892,13.5865866 50.2467017,13.645681 50.4058977,13.6412391 L50.4058977,13.6412391 Z M51.9201694,13.9583804 L51.2244457,13.1984066 C51.2225383,13.2589525 51.2132164,13.319046 51.1966841,13.3773708 C51.1673909,13.5529683 51.0721401,13.711136 50.930004,13.8202033 C50.7799958,13.9339585 50.5947943,13.9927864 50.4058977,13.9866817 C50.2325895,13.989897 50.061364,13.9489036 49.9087119,13.8676497 C49.7670332,13.7903119 49.650369,13.6748778 49.5722071,13.5346929 C49.4886501,13.3850369 49.4465671,13.2161826 49.4502241,13.0452464 C49.4459867,12.8782065 49.4841675,12.7127836 49.5612706,12.5641239 C49.628003,12.4354865 49.7304391,12.3283552 49.8565536,12.2553065 C49.9818858,12.1849487 50.1238419,12.1487567 50.2679308,12.1504251 C50.3014648,12.1513481 50.3349041,12.1544065 50.3680409,12.1595814 L50.2998987,12.0763422 C50.2244766,11.9890606 50.1598066,11.8932182 50.1072497,11.7908318 C50.0614589,11.6904929 50.039034,11.5812574 50.0416313,11.4711933 C50.0398507,11.2180417 50.1832972,10.985786 50.4117866,10.8718711 C50.5490233,10.8031869 50.701397,10.7694288 50.8551317,10.7736488 C51.1142404,10.7736488 51.3122174,10.837743 51.4490627,10.9659314 C51.5856697,11.0929445 51.6716467,11.264267 51.6913461,11.4487187 C51.7091777,11.5144125 51.7182282,11.5821358 51.7182665,11.6501576 C51.7200641,11.672319 51.7200641,11.6945874 51.7182665,11.7167489 L51.3296035,11.7167489 C51.3317793,11.6923795 51.3317793,11.6678678 51.3296035,11.6434984 C51.3296035,11.6151971 51.3296035,11.5952197 51.3296035,11.5827338 C51.3346309,11.4553169 51.2890319,11.331018 51.2025729,11.2364588 C51.1123479,11.1512769 50.9905993,11.1067049 50.8660681,11.1132648 C50.7496715,11.1074188 50.6360409,11.1496187 50.5522773,11.2297996 C50.4768247,11.304195 50.4352163,11.4057671 50.4370244,11.5111481 C50.4348341,11.5932289 50.4527283,11.6746173 50.4891827,11.7483798 C50.5361686,11.831865 50.5926169,11.9097801 50.6574351,11.9806172 L52.3408004,13.9550508 L51.9201694,13.9583804 Z" id="Forma" fill-rule="nonzero"></path>
                <polygon id="Trazado" points="57.3757538 10.8061121 56.5673009 13.9583804 56.0650675 13.9583804 55.3281219 11.3829597 54.5920177 13.9583804 54.0897842 13.9583804 53.2762838 10.8061121 53.7330891 10.8061121 54.3430041 13.4847494 55.0976161 10.8061121 55.5544214 10.8061121 56.3090335 13.4755931 56.923996 10.8061121"></polygon>
                <polygon id="Trazado" points="58.0899852 11.1365717 58.0899852 12.2145193 59.3014026 12.2145193 59.3014026 12.5274987 58.0899852 12.5274987 58.0899852 13.6279208 59.4368458 13.6279208 59.4368458 13.9583804 57.6786081 13.9583804 57.6786081 10.8061121 59.4368458 10.8061121 59.4368458 11.1365717"></polygon>
                <path d="M60.8922291,13.6220941 C61.0727994,13.633618 61.2516496,13.5814134 61.3969863,13.4747607 C61.5181583,13.3706922 61.5839776,13.2170947 61.5753339,13.0585647 C61.583991,12.8991512 61.5163725,12.744991 61.39278,12.6423687 C61.2473239,12.5357325 61.0687829,12.482735 60.8880228,12.4925382 L60.2007117,12.4925382 L60.2007117,13.6220941 L60.8922291,13.6220941 Z M60.1956641,12.1912123 L60.8829752,12.1912123 C61.0494425,12.2022963 61.2142729,12.1528653 61.3465106,12.0522029 C61.4563897,11.953104 61.5153933,11.8103598 61.5071916,11.6634758 C61.5144331,11.5196845 61.4564399,11.380198 61.3490344,11.2830727 C61.2430354,11.1906772 61.0823543,11.1440633 60.8653087,11.1440633 L60.1922991,11.1440633 L60.1956641,12.1912123 Z M61.3397805,12.3293894 C61.5260523,12.365314 61.6943384,12.4631066 61.8167761,12.6065759 C61.9376922,12.7474317 62.0025918,12.927057 61.9993299,13.1118378 C62.0090731,13.3464463 61.9121569,13.57305 61.7351737,13.7294726 C61.5585086,13.8842975 61.3036062,13.96171 60.9687839,13.96171 L59.7817632,13.96171 L59.7817632,10.8052797 L60.9511174,10.8052797 C61.270797,10.8052797 61.5130805,10.8760331 61.6788091,11.0158749 C61.9748631,11.3003448 62.0109073,11.7582734 61.7629353,12.0846662 C61.6530796,12.209622 61.5041152,12.2946006 61.3397805,12.3260598 L61.3397805,12.3293894 Z" id="Forma" fill-rule="nonzero"></path>
            </g>
        </g>
    </g>
</svg>